<svg width="22" height="22" viewBox="0 0 22 22" fill="none" xmlns="http://www.w3.org/2000/svg">
<path d="M19.35 7.92312L18.9838 7.71939C18.9269 7.68776 18.8984 7.67188 18.871 7.65543C18.5979 7.49184 18.3679 7.26542 18.1999 6.99501C18.183 6.9678 18.1664 6.93968 18.1338 6.88329L18.1337 6.88307C18.1012 6.82675 18.0848 6.79843 18.0697 6.77017C17.919 6.48885 17.8379 6.1756 17.8331 5.8565C17.8326 5.82771 17.8331 5.79826 17.834 5.74541L17.8343 5.72636L17.8414 5.30936C17.8529 4.62333 17.8586 4.28036 17.7626 3.97281C17.6776 3.70073 17.5357 3.44989 17.3459 3.23721C17.1317 2.99723 16.8348 2.82613 16.2424 2.48473L16.2393 2.48296L15.7455 2.1984C15.1526 1.85677 14.8561 1.68602 14.5414 1.62088C14.2629 1.56325 13.9754 1.56556 13.698 1.62784C13.3851 1.69806 13.0926 1.87322 12.5086 2.22294L12.5041 2.22562L12.1503 2.43748C12.0943 2.47098 12.066 2.48769 12.038 2.50328C11.7597 2.658 11.4485 2.74409 11.1303 2.7543C11.0982 2.75533 11.0656 2.75533 11.0004 2.75533H10.9995C10.9347 2.75533 10.9025 2.75533 10.8705 2.7543C10.5516 2.74405 10.2394 2.65757 9.96068 2.50221C9.93362 2.48712 9.90672 2.47097 9.85463 2.4397L9.84863 2.43609L9.49255 2.22232L9.48987 2.22071C8.9023 1.86797 8.60823 1.69143 8.29382 1.62088C8.01525 1.55838 7.72629 1.55628 7.44683 1.61466C7.13092 1.68064 6.83353 1.85322 6.239 2.19827L5.75134 2.48131C5.1599 2.82457 4.8646 2.99613 4.65124 3.23628C4.46248 3.44874 4.32109 3.699 4.23664 3.97037C4.14119 4.2771 4.14657 4.61903 4.15807 5.30277L4.16522 5.72743C4.1663 5.79173 4.16702 5.82391 4.16655 5.85554C4.16182 6.17528 4.0804 6.48921 3.92929 6.77103C3.91434 6.7989 3.89824 6.82677 3.86608 6.88244C3.8339 6.93816 3.81783 6.96595 3.80114 6.99283C3.63242 7.26468 3.40094 7.49218 3.12613 7.65604C3.09895 7.67225 3.07104 7.68783 3.01476 7.71903L2.65319 7.91939L2.65307 7.91946C2.05158 8.25279 1.7509 8.41942 1.5321 8.65681C1.33853 8.86684 1.19195 9.11592 1.10269 9.38724C1.00192 9.69354 1.0027 10.037 1.00426 10.7229L1.00427 10.7256L1.00554 11.2877L1.00556 11.2938C1.0071 11.9729 1.00787 12.3134 1.1087 12.6171C1.19816 12.8866 1.344 13.1339 1.53649 13.3427C1.75383 13.5784 2.05212 13.7443 2.64782 14.0757L2.64977 14.0768L3.00811 14.2762L3.01309 14.2789C3.07079 14.311 3.10054 14.3276 3.12914 14.3448C3.40145 14.5088 3.63043 14.7354 3.79772 15.0056C3.81579 15.0348 3.83314 15.0651 3.86781 15.1257L3.86784 15.1258C3.9021 15.1856 3.91943 15.2156 3.93528 15.2456C4.08195 15.5232 4.16121 15.8315 4.16657 16.1455C4.16715 16.1795 4.16661 16.214 4.16544 16.283L4.15856 16.6905L4.15854 16.692C4.14697 17.3771 4.14119 17.7198 4.23713 18.0272C4.32208 18.2993 4.46438 18.55 4.65417 18.7627C4.86869 19.0031 5.1656 19.1745 5.76013 19.5171L6.25383 19.8016C6.84668 20.1433 7.14354 20.314 7.45828 20.3791C7.73673 20.4368 8.02419 20.4344 8.30163 20.3721C8.61457 20.3019 8.90718 20.1266 9.49174 19.7766L9.49548 19.7744L9.8493 19.5625C9.90528 19.529 9.93344 19.5123 9.96149 19.4967C10.2398 19.342 10.5508 19.2559 10.869 19.2457C10.9011 19.2447 10.9337 19.2447 10.9989 19.2447C11.0643 19.2447 11.0975 19.2447 11.1296 19.2457C11.4485 19.256 11.7602 19.3424 12.0389 19.4977C12.067 19.5134 12.0952 19.5302 12.1512 19.5639L12.5073 19.7776L12.508 19.778C13.0969 20.1316 13.3913 20.3084 13.7061 20.379C13.9847 20.4415 14.2731 20.4437 14.5526 20.3854C14.8685 20.3194 15.1661 20.1468 15.7606 19.8017L16.2483 19.5187C16.8397 19.1754 17.1351 19.0039 17.3484 18.7637C17.5372 18.5512 17.6786 18.301 17.7631 18.0296C17.8585 17.7229 17.853 17.381 17.8415 16.6973L17.8343 16.2726L17.834 16.2511C17.8331 16.2007 17.8326 16.1724 17.833 16.1446C17.8378 15.8248 17.9191 15.5108 18.0702 15.229C18.0851 15.2012 18.1012 15.1733 18.1333 15.1178L18.1334 15.1176C18.1656 15.0619 18.1819 15.034 18.1986 15.0071C18.3674 14.7353 18.5986 14.5079 18.8734 14.344C18.8997 14.3284 18.9271 14.3132 18.9797 14.284L18.9852 14.281L19.3468 14.0806C19.9484 13.7472 20.2489 13.5806 20.4677 13.3432C20.6613 13.1331 20.8076 12.8841 20.8968 12.6128C20.9977 12.3061 20.9973 11.9622 20.9958 11.2744L20.9945 10.7123C20.993 10.0291 20.9921 9.68747 20.891 9.38284C20.8015 9.11335 20.6556 8.86604 20.4631 8.65728C20.2455 8.42131 19.947 8.25524 19.35 7.92312Z" stroke="#0B0B0B" stroke-width="1.2" stroke-linecap="round" stroke-linejoin="round"/>
<circle cx="11" cy="11" r="3" fill="none" stroke="currentColor" class="group-hover:stroke-current"></circle>
</svg>
